<svg version="1.1" width="1365.3333" height="1389.3333"
     viewBox="0 -12 1365.3333 1389.3333"
     xmlns="http://www.w3.org/2000/svg">
  <style>
    @keyframes hover {
      0%, 100% { transform: translateY(0px); }
      50% { transform: translateY(-12px); }
    }
    .animated { animation: hover 3s ease-in-out infinite; }
  </style>

  <!-- Static cloud background (stays still) -->
  <path style="fill:#000000" d="m 658.66663,761.44094 c -118.61716,-0.28851 -119,-0.41923 -119,-0.41923 -118.58983,-0.41778 -119.03675,-0.42953 -129.66665,-3.40836 -34.29911,-9.61167 -60.11559,-31.03984 -74.72757,-62.02528 -6.18364,-13.11271 -8.65283,-23.20407 -9.52345,-38.92144 -2.4204,-43.69543 22.48084,-85.30394 62.76402,-104.87502 l 6.15366,-2.98968 0.008,-12.06765 c 0.0157,-24.1361 6.84887,-53.2695 17.42597,-74.29629 11.15815,-22.1819 30.84253,-45.43308 51.28149,-60.5737 37.98365,-28.13723 86.4378,-38.20295 133.1043,-27.65067 19.17728,4.33639 27.52292,20.82953 18.24015,36.04724 -5.61518,9.20525 -14.7548,11.95897 -30.0065,9.04084 -21.19417,-4.05511 -46.5237,-2.10937 -66.38364,5.0994 -23.08655,8.37997 -47.882,28.57768 -59.60614,48.55358 -12.86405,21.91812 -17.29555,39.78603 -18.28162,73.71195 -0.373,12.83334 -1.26315,25.25335 -1.9781,27.60002 -1.84843,6.06706 -9.02591,11.7934 -18.04537,14.39698 -32.50419,9.38271 -53.88176,41.19221 -48.49768,72.16383 4.50708,25.92675 24.8374,47.02004 50.47158,52.36572 4.84073,1.00947 43.15232,1.47344 121.66666,1.47344 h 114.60089 l 47.99999,-2e-5 113.66666,-0.0197 c 96.66998,-0.0168 114.94404,-0.32081 122.20924,-2.03334 38.6742,-9.11616 59.86998,-49.3819 45.36533,-86.18059 -9.51325,-24.1353 -34.53566,-44.36022 -61.51836,-49.72357 -5.8494,-1.16269 -17.33828,-2.04599 -26.66667,-2.05022 -9.01424,-0.004 -18.76138,-0.66594 -21.66031,-1.47077 -6.80198,-1.88845 -13.43786,-8.57822 -15.13213,-15.25501 -0.73506,-2.89673 -2.34534,-9.46679 -3.57841,-14.60012 -6.46342,-26.90753 -28.92567,-50.66376 -57.4858,-60.79738 -5.64472,-2.00284 -12.96284,-3.06204 -25.91313,-3.75055 -15.08074,-0.80179 -18.91956,-1.44994 -23.35624,-3.94349 -17.01631,-9.5637 -16.3625,-32.78532 1.17498,-41.73227 5.05132,-2.577 6.87933,-2.74208 21.54063,-1.94531 59.54749,3.23611 104.88394,36.44627 127.18855,93.169 1.26787,3.22431 2.14806,3.66667 7.29575,3.66667 3.21966,0 11.17989,0.92877 17.68941,2.06393 54.19979,9.45166 95.77108,46.11231 107.27468,94.60273 3.8051,16.03955 3.1719,41.80654 -1.376,56 -10.9858,34.28468 -35.01881,59.82105 -68.45284,72.7348 -19.74,7.6245 -25.14547,7.9152 -147.26534,7.924 0,0 -84.5,-0.0226 -111,0.008 -26.5,0.0306 70.61717,0.39604 -47.99999,0.10753 z" />

  <!-- Animated drone (bounces up/down) -->
  <g class="animated">
    <path style="fill:#000000" d="m 659.87058,787.97262 c -0.3378,-12.3339 -0.7071,-37.26226 -0.7071,-37.26226 v -46.77432 -213.99998 -214 l -37.6667,-0.005 c -34.7841,-0.005 -37.9878,-0.20079 -41.8625,-2.56348 -5.0309,-3.06762 -7.7462,-10.05539 -6.2043,-15.96641 0.5867,-2.2494 23.1288,-34.33143 50.0934,-71.29339 37.0215,-50.74757 50.0049,-67.6088 53.022,-68.85852 6.006,-2.48776 13.1277,-0.7852 18.0437,4.31366 3.8885,4.03318 93.867,126.08732 97.5271,132.29376 2.0337,3.44861 2.1603,10.30741 0.2669,14.46294 -3.2934,7.22828 -5.6932,7.61642 -47.0921,7.61642 h -38.1276 v 75.37205 138.62795 213.99998 46.66681 26.70949 c 0,33.14049 -1.4696,37.90103 -13.6135,44.09905 -6.2122,3.1706 -17.0241,1.58858 -22.8613,-2.10412 -3.6255,-2.29356 -10.0803,-4.40195 -10.818,-31.33463 z" />
    <path style="fill:#000000;fill-opacity:1;stroke-width:1.16995" d="m 612.4572,1053.694 c -12.3609,-1.1938 -27.7884,-8.0766 -37.6225,-16.7848 -7.2681,-6.436 -16.3812,-19.9012 -18.5397,-27.3934 -2.9038,-10.07961 -4.0903,-22.16211 -4.0903,-41.65191 v -19.3726 h -53.2328 -53.2328 v 14.6971 c 0,14.5273 -0.2674,16.1166 -5.5967,33.2651 -4.9908,16.05931 -22.1088,33.01991 -39.4464,39.08381 -8.655,3.0271 -27.3661,3.7321 -37.2447,1.4033 -24.0393,-5.6671 -44.0886,-27.4814 -47.6062,-51.79711 -0.8737,-6.0395 -1.2307,-20.0757 -0.9693,-38.1098 l 0.4137,-28.5489 3.2948,-4.9778 c 4.7511,-7.1781 10.4139,-9.4161 23.9066,-9.44813 l 10.8221,-0.0257 v -25.09078 -25.09077 l -45.3357,-0.35567 c -43.7647,-0.34334 -45.4572,-0.44028 -48.8454,-2.79767 -1.9305,-1.34311 -4.4514,-2.78213 -5.6021,-3.19783 -2.8035,-1.01279 -7.833,-12.06536 -7.8152,-17.17421 0.021,-5.99021 3.7602,-13.24722 8.8112,-17.10012 l 4.4233,-3.37403 110.0668,-0.30031 c 122.8892,-0.3353 110.6681,-1.02417 117.5531,2.66052 2.31831,1.24071 4.72455,4.09718 5.8162,5.64363 0.64264,0.91038 0.70611,1.08139 1.4185,3.40839 0.71239,2.327 1.5039,15.3679 -0.4764,19.1753 -2.4239,4.66018 -6.3353,8.05732 -12.4897,10.84743 -4.9567,2.24717 -7.5408,2.38833 -44.1656,2.41252 l -38.9009,0.0257 v 24.91997 c 0,26.05874 -0.23305,25.92076 4.7205,26.26094 9.54421,0.3847 19.07141,0.68988 28.6231,0.29695 0.85905,0.42472 80.38253,0.43639 104.9164,-1.10233 0.852,0.11541 5.3253,0.14746 9.9406,0.0712 l 8.3914,-0.13862 1.3818,-4.38732 c 4.1469,-13.16662 17.7677,-29.88443 30.4673,-37.39484 13.4722,-7.96729 13.1482,-7.94077 97.027,-7.94077 85.2829,0 84.4306,-0.0784 98.6022,9.07313 12.8517,8.29924 21.5414,18.73548 28.2719,33.95444 2.1158,4.7841 3.1458,5.97246 5.8585,7.06368 2.67112,1.07449 2.75148,0.7158 12.9264,0.8016 15.10644,0.12739 30.38956,-0.52778 46.144,-1.16996 h 10.5296 c 2.6118,0 29.14922,0.003 40.1367,0.11593 15.41215,0.15878 26.19183,0.11557 38.9731,-0.11593 h 5.1957 V 878.9358 853.83828 l -40.6558,-0.34892 c -37.8505,-0.32485 -40.898,-0.5049 -44.1656,-2.60944 -14.01837,-9.02836 -8.67642,-13.28571 -11.0555,-11.81543 -1.6633,1.02799 -2.7751,-6.83161 -1.8444,-13.03834 0.581,-3.87408 1.27971,-4.78438 1.95709,-6.00425 1.17648,-2.11871 5.02817,-7.55148 10.60261,-9.49472 2.4806,-0.86475 37.5168,-1.25992 111.70676,-1.25992 106.13604,0 108.17634,0.0428 112.72434,2.36302 6.905,3.52264 11.0309,10.47491 11.0274,18.5812 0,8.92876 -3.2344,14.84504 -10.5807,19.37735 l -5.7568,3.55161 -45.3356,0.35566 -45.3356,0.35567 v 25.09077 25.09078 l 10.8221,0.0257 c 12.2203,0.029 18.6279,2.15113 22.902,7.58473 4.6304,5.8866 5.1504,10.9814 4.5949,45.0159 -0.4473,27.4066 -0.844,33.0653 -2.6669,38.0449 -5.5068,15.04285 -15.8563,27.50905 -29.5184,35.55545 -8.9147,5.2504 -20.97794,8.9072 -23.22684,7.0408 -0.95484,-0.7924 -1.66524,-0.776 -2.17594,0.05 -1.224,1.9805 -14.73832,1.4101 -24.25442,-1.0238 -20.0462,-5.1269 -36.7532,-21.0284 -43.731,-41.62265 -2.76,-8.1456 -3.2452,-11.7495 -3.7408,-27.7863 l -0.5694,-18.4268 h -53.6635 -53.6635 v 27.3107 c 0,31.90065 -0.691,35.09815 -10.4983,48.58205 -7.5241,10.3446 -15.7366,17.6045 -25.0277,22.1244 -16.4426,7.9989 -11.7266,7.5895 -89.0738,7.7331 -38.6084,0.072 -73.356,-0.1747 -77.2168,-0.5476 z" />
  </g>
</svg>
